<?xml version="1.0"?>
<svg xmlns="http://www.w3.org/2000/svg" width="1600" height="1340" viewBox="0 0 1600 1340" role="img" aria-labelledby="title desc">
  <title id="title">AIUI detailed module architecture</title>
  <desc id="desc">AIUI layers user entry points, the agent framework, components and APIs, the Ink runtime, and platform services. Design guidelines and developer tools span every layer.</desc>
  <defs>
    <filter id="s" x="-10%" y="-10%" width="120%" height="130%">
      <feDropShadow dx="0" dy="3" stdDeviation="6" flood-color="#3c4043" flood-opacity=".12"/>
    </filter>
    <marker id="a" viewBox="0 0 10 10" refX="8" refY="5" markerWidth="7" markerHeight="7" orient="auto">
      <path d="M0 0l10 5-10 5z" fill="#34a853"/>
    </marker>
    <marker id="b" viewBox="0 0 10 10" refX="2" refY="5" markerWidth="7" markerHeight="7" orient="auto">
      <path d="M10 0L0 5l10 5z" fill="#80868b"/>
    </marker>
    <style>text{font-family:Inter,"Noto Sans SC","PingFang SC",Arial,sans-serif}.h1{font-size:34px;font-weight:700;fill:#202124}.sub{font-size:17px;fill:#5f6368}.lane{font-size:14px;font-weight:700;fill:#137333;letter-spacing:1px}.group{font-size:21px;font-weight:700;fill:#202124}.card{font-size:17px;font-weight:650;fill:#202124}.detail{font-size:13px;fill:#5f6368}.tiny{font-size:12px;fill:#5f6368}.chip{font-size:12px;font-weight:650;fill:#137333}.req{stroke:#34a853;stroke-width:3;fill:none;marker-end:url(#a)}.evt{stroke:#80868b;stroke-width:2;stroke-dasharray:6 6;fill:none;marker-end:url(#b)}</style>
  </defs>
  <rect width="1600" height="1340" fill="#f8faf8"/>
  <path d="M0 0h1600v9H0z" fill="#34a853"/>
  <text x="80" y="72" class="h1">AIUI Module Architecture</text>
  <text x="80" y="104" class="sub">From user intent to device execution, with continuous status and result feedback</text>
  <g transform="translate(1260 50)">
    <circle cx="8" cy="8" r="7" fill="#34a853"/>
    <text x="25" y="13" class="tiny">Request / Call</text>
    <path d="M115 8h42" class="evt"/>
    <text x="168" y="13" class="tiny">Event / Feedback</text>
  </g>
  <g filter="url(#s)">
    <rect x="40" y="146" width="170" height="1125" rx="20" fill="#e6f4ea" stroke="#b7dfc2"/>
    <circle cx="125" cy="195" r="27" fill="#34a853"/>
    <g transform="rotate(-10 125 195)" fill="none" stroke="#fff" stroke-width="3" stroke-linecap="round" stroke-linejoin="round">
      <rect x="108" y="185" width="34" height="20" rx="3"/>
      <path d="M115 185v7M122 185v4M129 185v7M136 185v4"/>
    </g>
    <text x="125" y="258" text-anchor="middle" class="group">Design</text>
    <text x="125" y="283" text-anchor="middle" class="detail">Guidelines</text>
    <g class="card">
      <text x="70" y="330">Visual System</text>
      <text x="70" y="410">Interaction</text>
      <text x="70" y="490">Device Fit</text>
      <text x="70" y="570">Hierarchy</text>
      <text x="70" y="650">Feedback</text>
      <text x="70" y="730">Accessibility</text>
    </g>
    <g class="tiny" style="font-size:11px">
      <text x="70" y="353">Color · Type · Space</text>
      <text x="70" y="433">Chat · Immersive</text>
      <text x="70" y="513">Glasses · AR · Device</text>
      <text x="70" y="593">Layout · Focus · State</text>
      <text x="70" y="673">Progress · Result</text>
      <text x="70" y="753">Readable · Operable</text>
    </g>
    <rect x="1390" y="146" width="170" height="1125" rx="20" fill="#f0f6ee" stroke="#c8ddc3"/>
    <circle cx="1475" cy="195" r="27" fill="#137333"/>
    <path d="M1462 188h26v20h-26zM1468 181v7M1482 181v7" fill="none" stroke="#fff" stroke-width="3"/>
    <text x="1475" y="258" text-anchor="middle" class="group">Developer</text>
    <text x="1475" y="283" text-anchor="middle" class="detail">Tools</text>
    <g class="card">
      <text x="1420" y="330">Craft</text>
      <text x="1420" y="410">CLI</text>
      <text x="1420" y="490">Debugger</text>
      <text x="1420" y="570">Performance</text>
      <text x="1420" y="650">Distribution</text>
      <text x="1420" y="730">Diagnostics</text>
    </g>
    <g class="tiny" style="font-size:11px">
      <text x="1420" y="353">AI-assisted coding</text>
      <text x="1420" y="433">Create · Run · Build</text>
      <text x="1420" y="513">Page · Net · Device</text>
      <text x="1420" y="593">FPS · Memory · Time</text>
      <text x="1420" y="673">Bundle &#xB7; Publish</text>
      <text x="1420" y="753">Trace &#xB7; Console</text>
    </g>
  </g>
  <g transform="translate(240 146)">
    <text y="15" class="lane">01 · USER &amp; ENTRY POINTS</text>
    <rect y="32" width="1120" height="112" rx="18" fill="#fff" stroke="#dadce0" filter="url(#s)"/>
    <g transform="translate(24 53)">
      <rect width="252" height="70" rx="14" fill="#f1f8f3"/>
      <circle cx="35" cy="35" r="18" fill="#34a853"/>
      <path d="M27 35h16M35 27v16" stroke="#fff" stroke-width="3"/>
      <text x="65" y="30" class="card">User Intent</text>
      <text x="65" y="52" class="detail" style="font-size:12px">Voice · Text · Gesture · Event</text>
    </g>
    <g transform="translate(300 53)">
      <rect width="252" height="70" rx="14" fill="#f8f9fa"/>
      <text x="18" y="30" class="card">Conversational UI</text>
      <text x="18" y="52" class="detail">Messages · Cards · Actions</text>
    </g>
    <g transform="translate(576 53)">
      <rect width="252" height="70" rx="14" fill="#f8f9fa"/>
      <text x="18" y="30" class="card">Immersive Pages</text>
      <text x="18" y="52" class="detail">Page &#xB7; Component &#xB7; Canvas</text>
    </g>
    <g transform="translate(852 53)">
      <rect width="244" height="70" rx="14" fill="#f8f9fa"/>
      <text x="18" y="30" class="card">Smart Devices</text>
      <text x="18" y="52" class="detail">Glasses · AR · Mobile</text>
    </g>
    <path d="M550 144v34" class="req"/>
    <path d="M582 178v-34" class="evt"/>
    <text y="203" class="lane">02 · AGENT FRAMEWORK</text>
    <rect y="220" width="1120" height="178" rx="18" fill="#e6f4ea" stroke="#81c995" filter="url(#s)"/>
    <text x="24" y="253" class="group">Agent Definition &amp; Interaction Orchestration</text>
    <text x="1096" y="253" text-anchor="end" class="chip">DECLARATIVE + EVENT-DRIVEN</text>
    <g transform="translate(24 273)">
      <rect width="200" height="99" rx="13" fill="#fff"/>
      <text x="16" y="28" class="card">Identity &amp; Scope</text>
      <text x="16" y="51" class="detail">AGENTS.md</text>
      <text x="16" y="73" class="detail">Role · Skills · Constraints</text>
    </g>
    <g transform="translate(242 273)">
      <rect width="200" height="99" rx="13" fill="#fff"/>
      <text x="16" y="28" class="card">Intent &amp; Routing</text>
      <text x="16" y="51" class="detail">Resolve context and goal</text>
      <text x="16" y="73" class="detail">Select a page or capability</text>
    </g>
    <g transform="translate(460 273)">
      <rect width="200" height="99" rx="13" fill="#fff"/>
      <text x="16" y="28" class="card">Page &amp; Entity Tree</text>
      <text x="16" y="51" class="detail">App &#xB7; Page &#xB7; Entity</text>
      <text x="16" y="73" class="detail">Declarative structure</text>
    </g>
    <g transform="translate(678 273)">
      <rect width="200" height="99" rx="13" fill="#fff"/>
      <text x="16" y="28" class="card">State &amp; Events</text>
      <text x="16" y="51" class="detail">Data binding · Page events</text>
      <text x="16" y="73" class="detail">Actions · Callbacks</text>
    </g>
    <g transform="translate(896 273)">
      <rect width="200" height="99" rx="13" fill="#fff"/>
      <text x="16" y="28" class="card">Lifecycle</text>
      <text x="16" y="51" class="detail">Load · Show · Update</text>
      <text x="16" y="73" class="detail">Hide · Unload · Restore</text>
    </g>
    <path d="M550 398v34" class="req"/>
    <path d="M582 432v-34" class="evt"/>
    <text y="457" class="lane">03 · EXPERIENCE &amp; CAPABILITIES</text>
    <rect y="474" width="548" height="194" rx="18" fill="#fff" stroke="#a8dab5" filter="url(#s)"/>
    <rect y="474" width="548" height="48" rx="18" fill="#dff3e4"/>
    <text x="22" y="505" class="group">Built-in Components</text>
    <g class="card">
      <text x="24" y="553">Display</text>
      <text x="198" y="553">Interaction</text>
      <text x="372" y="553">Media &amp; AI</text>
    </g>
    <g class="detail">
      <text x="24" y="579">View &#xB7; Text &#xB7; Image</text>
      <text x="24" y="602">Icon &#xB7; Streamdown</text>
      <text x="198" y="579">Button &#xB7; ScrollView</text>
      <text x="198" y="602">Calendar &#xB7; A2UI</text>
      <text x="372" y="579">Audio &#xB7; Lottie</text>
      <text x="372" y="602">Canvas &#xB7; Chart</text>
    </g>
    <rect x="24" y="625" width="500" height="24" rx="12" fill="#f1f8f3"/>
    <text x="274" y="642" text-anchor="middle" class="chip">Declarative UI · Events · State · Reactive Rendering</text>
    <rect x="572" y="474" width="548" height="194" rx="18" fill="#fff" stroke="#a8dab5" filter="url(#s)"/>
    <rect x="572" y="474" width="548" height="48" rx="18" fill="#dff3e4"/>
    <text x="594" y="505" class="group">API / Capability Interfaces</text>
    <g class="card">
      <text x="596" y="553">Application</text>
      <text x="770" y="553">System</text>
      <text x="944" y="553">Open Services</text>
    </g>
    <g class="detail">
      <text x="596" y="579">Route &#xB7; Storage</text>
      <text x="596" y="602">Network &#xB7; Crypto</text>
      <text x="770" y="579">Device &#xB7; Media</text>
      <text x="770" y="602">Canvas &#xB7; Web APIs</text>
      <text x="944" y="579">AI &#xB7; Speech</text>
      <text x="944" y="602">Cloud &#xB7; Notifications</text>
    </g>
    <rect x="596" y="625" width="500" height="24" rx="12" fill="#f1f8f3"/>
    <text x="846" y="642" text-anchor="middle" class="chip">Promise &#xB7; Event &#xB7; Stream &#xB7; Device Session</text>
    <path d="M550 668v34" class="req"/>
    <path d="M582 702v-34" class="evt"/>
    <text y="727" class="lane">04 · AGENT RUNTIME</text>
    <rect y="744" width="1120" height="174" rx="18" fill="#137333" filter="url(#s)"/>
    <text x="24" y="780" class="group" style="fill:#fff">Ink Runtime</text>
    <text x="1096" y="780" text-anchor="end" font-size="14" font-weight="700" fill="#ceead6">Cross-platform execution, scheduling, rendering, and system bridges</text>
    <g transform="translate(24 801)">
      <rect width="200" height="91" rx="13" fill="#fff"/>
      <text x="16" y="28" class="card">Script Environment</text>
      <text x="16" y="53" class="detail">JavaScript / TypeScript</text>
      <text x="16" y="75" class="detail">Modules · Async tasks</text>
    </g>
    <g transform="translate(242 801)">
      <rect width="200" height="91" rx="13" fill="#fff"/>
      <text x="16" y="28" class="card">Page Runtime Model</text>
      <text x="16" y="53" class="detail">App &#xB7; Page &#xB7; Component</text>
      <text x="16" y="75" class="detail">Lifecycle · Dispatch</text>
    </g>
    <g transform="translate(460 801)">
      <rect width="200" height="91" rx="13" fill="#fff"/>
      <text x="16" y="28" class="card">State &amp; Scheduling</text>
      <text x="16" y="53" class="detail">Update merge · Task queue</text>
      <text x="16" y="75" class="detail">Timers · Async wakeup</text>
    </g>
    <g transform="translate(678 801)">
      <rect width="200" height="91" rx="13" fill="#fff"/>
      <text x="16" y="28" class="card">Render Pipeline</text>
      <text x="16" y="53" class="detail">Layout · Paint · Composite</text>
      <text x="16" y="75" class="detail">Canvas &#xB7; Media &#xB7; GPU</text>
    </g>
    <g transform="translate(896 801)">
      <rect width="200" height="91" rx="13" fill="#fff"/>
      <text x="16" y="28" class="card">Service Bridge</text>
      <text x="16" y="53" class="detail">Network · AI · Device</text>
      <text x="16" y="75" class="detail">Auth · Session · Callback</text>
    </g>
    <path d="M550 918v34" class="req"/>
    <path d="M582 952v-34" class="evt"/>
    <text y="977" class="lane">05 · PLATFORM &amp; REAL-WORLD SERVICES</text>
    <rect y="994" width="1120" height="132" rx="18" fill="#fff" stroke="#dadce0" filter="url(#s)"/>
    <g transform="translate(20 1015)">
      <rect width="200" height="88" rx="13" fill="#f1f8f3"/>
      <text x="16" y="29" class="card">AI Services</text>
      <text x="16" y="55" class="detail">LLM &#xB7; ASR &#xB7; TTS</text>
      <text x="16" y="75" class="detail">Generation · Understanding</text>
    </g>
    <g transform="translate(240 1015)">
      <rect width="200" height="88" rx="13" fill="#f1f8f3"/>
      <text x="16" y="29" class="card">Network &amp; Data</text>
      <text x="16" y="55" class="detail">HTTP &#xB7; WebSocket</text>
      <text x="16" y="75" class="detail">Storage &#xB7; Cloud</text>
    </g>
    <g transform="translate(460 1015)">
      <rect width="200" height="88" rx="13" fill="#f1f8f3"/>
      <text x="16" y="29" class="card">Devices &amp; Sensors</text>
      <text x="16" y="55" class="detail">Bluetooth &#xB7; Camera</text>
      <text x="16" y="75" class="detail">IMU &#xB7; Barcode</text>
    </g>
    <g transform="translate(680 1015)">
      <rect width="200" height="88" rx="13" fill="#f1f8f3"/>
      <text x="16" y="29" class="card">Media &amp; Graphics</text>
      <text x="16" y="55" class="detail">Audio &#xB7; Video &#xB7; Canvas</text>
      <text x="16" y="75" class="detail">GPU &#xB7; Display &#xB7; WSI</text>
    </g>
    <g transform="translate(900 1015)">
      <rect width="200" height="88" rx="13" fill="#f1f8f3"/>
      <text x="16" y="29" class="card">Target Platforms</text>
      <text x="16" y="55" class="detail">Android &#xB7; Apple</text>
      <text x="16" y="75" class="detail">OpenHarmony &#xB7; Web</text>
    </g>
  </g>
  <text x="800" y="1310" text-anchor="middle" class="tiny">Design guidelines shape experience quality · Developer tools cover creation, debugging, diagnostics, and delivery · Ink connects agents to platform capabilities</text>
</svg>
