<?xml version="1.0" standalone="no"?>
<svg xmlns="http://www.w3.org/2000/svg" version="1.1" width="315" height="315">
	<!-- Created with https://api.qrserver.com (QR Code API, see goQR.me/api for information) -->
	<title>QR Code</title>
	<desc>INK-QR-DEMO</desc>
	<rect style="fill:rgb(255, 255, 255);fill-opacity:1" x="0" y="0" width="315" height="315" />
	<g id="elements">
		<path style="fill:rgb(0, 0, 0)" d="M 0,0 l 15,0 0,15 -15,0 z M 15,0 l 15,0 0,15 -15,0 z M 30,0 l 15,0 0,15 -15,0 z M 45,0 l 15,0 0,15 -15,0 z M 60,0 l 15,0 0,15 -15,0 z M 75,0 l 15,0 0,15 -15,0 z M 90,0 l 15,0 0,15 -15,0 z M 135,0 l 15,0 0,15 -15,0 z M 180,0 l 15,0 0,15 -15,0 z M 210,0 l 15,0 0,15 -15,0 z M 225,0 l 15,0 0,15 -15,0 z M 240,0 l 15,0 0,15 -15,0 z M 255,0 l 15,0 0,15 -15,0 z M 270,0 l 15,0 0,15 -15,0 z M 285,0 l 15,0 0,15 -15,0 z M 300,0 l 15,0 0,15 -15,0 z M 0,15 l 15,0 0,15 -15,0 z M 90,15 l 15,0 0,15 -15,0 z M 120,15 l 15,0 0,15 -15,0 z M 165,15 l 15,0 0,15 -15,0 z M 210,15 l 15,0 0,15 -15,0 z M 300,15 l 15,0 0,15 -15,0 z M 0,30 l 15,0 0,15 -15,0 z M 30,30 l 15,0 0,15 -15,0 z M 45,30 l 15,0 0,15 -15,0 z M 60,30 l 15,0 0,15 -15,0 z M 90,30 l 15,0 0,15 -15,0 z M 135,30 l 15,0 0,15 -15,0 z M 210,30 l 15,0 0,15 -15,0 z M 240,30 l 15,0 0,15 -15,0 z M 255,30 l 15,0 0,15 -15,0 z M 270,30 l 15,0 0,15 -15,0 z M 300,30 l 15,0 0,15 -15,0 z M 0,45 l 15,0 0,15 -15,0 z M 30,45 l 15,0 0,15 -15,0 z M 45,45 l 15,0 0,15 -15,0 z M 60,45 l 15,0 0,15 -15,0 z M 90,45 l 15,0 0,15 -15,0 z M 120,45 l 15,0 0,15 -15,0 z M 165,45 l 15,0 0,15 -15,0 z M 210,45 l 15,0 0,15 -15,0 z M 240,45 l 15,0 0,15 -15,0 z M 255,45 l 15,0 0,15 -15,0 z M 270,45 l 15,0 0,15 -15,0 z M 300,45 l 15,0 0,15 -15,0 z M 0,60 l 15,0 0,15 -15,0 z M 30,60 l 15,0 0,15 -15,0 z M 45,60 l 15,0 0,15 -15,0 z M 60,60 l 15,0 0,15 -15,0 z M 90,60 l 15,0 0,15 -15,0 z M 150,60 l 15,0 0,15 -15,0 z M 165,60 l 15,0 0,15 -15,0 z M 180,60 l 15,0 0,15 -15,0 z M 210,60 l 15,0 0,15 -15,0 z M 240,60 l 15,0 0,15 -15,0 z M 255,60 l 15,0 0,15 -15,0 z M 270,60 l 15,0 0,15 -15,0 z M 300,60 l 15,0 0,15 -15,0 z M 0,75 l 15,0 0,15 -15,0 z M 90,75 l 15,0 0,15 -15,0 z M 120,75 l 15,0 0,15 -15,0 z M 135,75 l 15,0 0,15 -15,0 z M 150,75 l 15,0 0,15 -15,0 z M 180,75 l 15,0 0,15 -15,0 z M 210,75 l 15,0 0,15 -15,0 z M 300,75 l 15,0 0,15 -15,0 z M 0,90 l 15,0 0,15 -15,0 z M 15,90 l 15,0 0,15 -15,0 z M 30,90 l 15,0 0,15 -15,0 z M 45,90 l 15,0 0,15 -15,0 z M 60,90 l 15,0 0,15 -15,0 z M 75,90 l 15,0 0,15 -15,0 z M 90,90 l 15,0 0,15 -15,0 z M 120,90 l 15,0 0,15 -15,0 z M 150,90 l 15,0 0,15 -15,0 z M 180,90 l 15,0 0,15 -15,0 z M 210,90 l 15,0 0,15 -15,0 z M 225,90 l 15,0 0,15 -15,0 z M 240,90 l 15,0 0,15 -15,0 z M 255,90 l 15,0 0,15 -15,0 z M 270,90 l 15,0 0,15 -15,0 z M 285,90 l 15,0 0,15 -15,0 z M 300,90 l 15,0 0,15 -15,0 z M 150,105 l 15,0 0,15 -15,0 z M 165,105 l 15,0 0,15 -15,0 z M 180,105 l 15,0 0,15 -15,0 z M 0,120 l 15,0 0,15 -15,0 z M 15,120 l 15,0 0,15 -15,0 z M 30,120 l 15,0 0,15 -15,0 z M 45,120 l 15,0 0,15 -15,0 z M 60,120 l 15,0 0,15 -15,0 z M 90,120 l 15,0 0,15 -15,0 z M 105,120 l 15,0 0,15 -15,0 z M 120,120 l 15,0 0,15 -15,0 z M 135,120 l 15,0 0,15 -15,0 z M 180,120 l 15,0 0,15 -15,0 z M 195,120 l 15,0 0,15 -15,0 z M 225,120 l 15,0 0,15 -15,0 z M 255,120 l 15,0 0,15 -15,0 z M 285,120 l 15,0 0,15 -15,0 z M 15,135 l 15,0 0,15 -15,0 z M 75,135 l 15,0 0,15 -15,0 z M 105,135 l 15,0 0,15 -15,0 z M 135,135 l 15,0 0,15 -15,0 z M 150,135 l 15,0 0,15 -15,0 z M 180,135 l 15,0 0,15 -15,0 z M 225,135 l 15,0 0,15 -15,0 z M 240,135 l 15,0 0,15 -15,0 z M 255,135 l 15,0 0,15 -15,0 z M 270,135 l 15,0 0,15 -15,0 z M 285,135 l 15,0 0,15 -15,0 z M 45,150 l 15,0 0,15 -15,0 z M 90,150 l 15,0 0,15 -15,0 z M 120,150 l 15,0 0,15 -15,0 z M 135,150 l 15,0 0,15 -15,0 z M 150,150 l 15,0 0,15 -15,0 z M 165,150 l 15,0 0,15 -15,0 z M 255,150 l 15,0 0,15 -15,0 z M 15,165 l 15,0 0,15 -15,0 z M 30,165 l 15,0 0,15 -15,0 z M 75,165 l 15,0 0,15 -15,0 z M 105,165 l 15,0 0,15 -15,0 z M 120,165 l 15,0 0,15 -15,0 z M 135,165 l 15,0 0,15 -15,0 z M 150,165 l 15,0 0,15 -15,0 z M 225,165 l 15,0 0,15 -15,0 z M 255,165 l 15,0 0,15 -15,0 z M 270,165 l 15,0 0,15 -15,0 z M 30,180 l 15,0 0,15 -15,0 z M 90,180 l 15,0 0,15 -15,0 z M 120,180 l 15,0 0,15 -15,0 z M 135,180 l 15,0 0,15 -15,0 z M 165,180 l 15,0 0,15 -15,0 z M 240,180 l 15,0 0,15 -15,0 z M 255,180 l 15,0 0,15 -15,0 z M 270,180 l 15,0 0,15 -15,0 z M 285,180 l 15,0 0,15 -15,0 z M 120,195 l 15,0 0,15 -15,0 z M 150,195 l 15,0 0,15 -15,0 z M 165,195 l 15,0 0,15 -15,0 z M 180,195 l 15,0 0,15 -15,0 z M 195,195 l 15,0 0,15 -15,0 z M 210,195 l 15,0 0,15 -15,0 z M 225,195 l 15,0 0,15 -15,0 z M 285,195 l 15,0 0,15 -15,0 z M 300,195 l 15,0 0,15 -15,0 z M 0,210 l 15,0 0,15 -15,0 z M 15,210 l 15,0 0,15 -15,0 z M 30,210 l 15,0 0,15 -15,0 z M 45,210 l 15,0 0,15 -15,0 z M 60,210 l 15,0 0,15 -15,0 z M 75,210 l 15,0 0,15 -15,0 z M 90,210 l 15,0 0,15 -15,0 z M 120,210 l 15,0 0,15 -15,0 z M 180,210 l 15,0 0,15 -15,0 z M 210,210 l 15,0 0,15 -15,0 z M 225,210 l 15,0 0,15 -15,0 z M 240,210 l 15,0 0,15 -15,0 z M 255,210 l 15,0 0,15 -15,0 z M 300,210 l 15,0 0,15 -15,0 z M 0,225 l 15,0 0,15 -15,0 z M 90,225 l 15,0 0,15 -15,0 z M 165,225 l 15,0 0,15 -15,0 z M 180,225 l 15,0 0,15 -15,0 z M 195,225 l 15,0 0,15 -15,0 z M 210,225 l 15,0 0,15 -15,0 z M 225,225 l 15,0 0,15 -15,0 z M 240,225 l 15,0 0,15 -15,0 z M 270,225 l 15,0 0,15 -15,0 z M 285,225 l 15,0 0,15 -15,0 z M 0,240 l 15,0 0,15 -15,0 z M 30,240 l 15,0 0,15 -15,0 z M 45,240 l 15,0 0,15 -15,0 z M 60,240 l 15,0 0,15 -15,0 z M 90,240 l 15,0 0,15 -15,0 z M 120,240 l 15,0 0,15 -15,0 z M 135,240 l 15,0 0,15 -15,0 z M 180,240 l 15,0 0,15 -15,0 z M 225,240 l 15,0 0,15 -15,0 z M 285,240 l 15,0 0,15 -15,0 z M 0,255 l 15,0 0,15 -15,0 z M 30,255 l 15,0 0,15 -15,0 z M 45,255 l 15,0 0,15 -15,0 z M 60,255 l 15,0 0,15 -15,0 z M 90,255 l 15,0 0,15 -15,0 z M 120,255 l 15,0 0,15 -15,0 z M 135,255 l 15,0 0,15 -15,0 z M 150,255 l 15,0 0,15 -15,0 z M 180,255 l 15,0 0,15 -15,0 z M 0,270 l 15,0 0,15 -15,0 z M 30,270 l 15,0 0,15 -15,0 z M 45,270 l 15,0 0,15 -15,0 z M 60,270 l 15,0 0,15 -15,0 z M 90,270 l 15,0 0,15 -15,0 z M 120,270 l 15,0 0,15 -15,0 z M 135,270 l 15,0 0,15 -15,0 z M 165,270 l 15,0 0,15 -15,0 z M 195,270 l 15,0 0,15 -15,0 z M 225,270 l 15,0 0,15 -15,0 z M 255,270 l 15,0 0,15 -15,0 z M 0,285 l 15,0 0,15 -15,0 z M 90,285 l 15,0 0,15 -15,0 z M 120,285 l 15,0 0,15 -15,0 z M 135,285 l 15,0 0,15 -15,0 z M 150,285 l 15,0 0,15 -15,0 z M 225,285 l 15,0 0,15 -15,0 z M 240,285 l 15,0 0,15 -15,0 z M 255,285 l 15,0 0,15 -15,0 z M 270,285 l 15,0 0,15 -15,0 z M 300,285 l 15,0 0,15 -15,0 z M 0,300 l 15,0 0,15 -15,0 z M 15,300 l 15,0 0,15 -15,0 z M 30,300 l 15,0 0,15 -15,0 z M 45,300 l 15,0 0,15 -15,0 z M 60,300 l 15,0 0,15 -15,0 z M 75,300 l 15,0 0,15 -15,0 z M 90,300 l 15,0 0,15 -15,0 z M 120,300 l 15,0 0,15 -15,0 z M 150,300 l 15,0 0,15 -15,0 z M 165,300 l 15,0 0,15 -15,0 z M 195,300 l 15,0 0,15 -15,0 z M 225,300 l 15,0 0,15 -15,0 z M 240,300 l 15,0 0,15 -15,0 z M 255,300 l 15,0 0,15 -15,0 z " />
	</g>
</svg>
